<?xml version="1.0" encoding="iso-8859-1"?>
<!-- Generator: Adobe Illustrator 19.0.0, SVG Export Plug-In . SVG Version: 6.00 Build 0)  -->
<svg version="1.1" id="Capa_1" xmlns="http://www.w3.org/2000/svg" xmlns:xlink="http://www.w3.org/1999/xlink" x="0px" y="0px"
	 viewBox="0 0 539.077 539.077" style="enable-background:new 0 0 539.077 539.077;" xml:space="preserve">
<g>
	<g>
		<path d="M404.308,539.077H134.769c-5.933,0-10.836-4.606-11.209-10.529l-21.803-348.856H89.846
			c-6.208,0-11.231-5.023-11.231-11.231V78.615c0-6.208,5.023-11.231,11.231-11.231h14.367L124.12,7.677
			C125.644,3.093,129.933,0,134.769,0h269.538c4.826,0,9.125,3.093,10.66,7.677l19.895,59.707h14.367
			c6.208,0,11.231,5.023,11.231,11.231v89.846c0,6.208-5.023,11.231-11.231,11.231H437.32l-21.803,348.856
			C415.144,534.471,410.23,539.077,404.308,539.077z M145.32,516.615h248.437l21.058-336.923H124.262L145.32,516.615z
			 M101.077,157.231H438V89.846H101.077V157.231z M127.893,67.385h283.303l-14.982-44.923h-253.35L127.893,67.385z"/>
		<path d="M413.213,404.308H126.346v-22.462h286.867V404.308z M421.154,269.538H117.923v-22.462h303.231V269.538z"/>
		<path d="M325.692,336.923H213.385c-6.208,0-11.231-5.023-11.231-11.231c0-6.208,5.023-11.231,11.231-11.231h112.308
			c6.208,0,11.231,5.023,11.231,11.231C336.923,331.9,331.9,336.923,325.692,336.923z"/>
	</g>
</g>
<g>
</g>
<g>
</g>
<g>
</g>
<g>
</g>
<g>
</g>
<g>
</g>
<g>
</g>
<g>
</g>
<g>
</g>
<g>
</g>
<g>
</g>
<g>
</g>
<g>
</g>
<g>
</g>
<g>
</g>
</svg>
