<?xml version="1.0" encoding="iso-8859-1"?>
<!-- Generator: Adobe Illustrator 19.0.0, SVG Export Plug-In . SVG Version: 6.00 Build 0)  -->
<svg version="1.1" id="Capa_1" xmlns="http://www.w3.org/2000/svg" xmlns:xlink="http://www.w3.org/1999/xlink" x="0px" y="0px"
	 viewBox="0 0 539.077 539.077" style="enable-background:new 0 0 539.077 539.077;" xml:space="preserve">
<g>
	<g>
		<path d="M397.069,126.51L284.52,31.641L175.843,126.39l-14.762-16.934L277.018,8.379c4.146-3.641,10.375-3.685,14.609-0.121
			l119.919,101.077L397.069,126.51z"/>
		<path d="M527.846,533.461H11.231C5.023,533.461,0,528.438,0,522.23V117.923c0-6.208,5.023-11.231,11.231-11.231h516.615
			c6.208,0,11.231,5.023,11.231,11.231V522.23C539.077,528.438,534.054,533.461,527.846,533.461z M22.462,510.999h494.154V129.153
			H22.462V510.999z M264.197,421.153H140.11v-22.462h124.087V421.153z"/>
		<path d="M482.923,488.538H56.154c-6.208,0-11.231-5.023-11.231-11.231V162.846c0-6.208,5.023-11.231,11.231-11.231h426.769
			c6.208,0,11.231,5.023,11.231,11.231v314.462C494.154,483.515,489.131,488.538,482.923,488.538z M426.769,466.076h44.923V331.307
			h-44.923V466.076z M381.846,466.076h22.462v-67.385h-22.462V466.076z M316.326,466.076h43.059v-78.615
			c0-6.208,5.023-11.231,11.231-11.231h33.692v-56.154c0-6.208,5.023-11.231,11.231-11.231h56.154V174.076H67.385v292H87.96
			c17.811-22.593,102.963-136.151,102.963-242.295c0-6.208,5.023-11.231,11.231-11.231c6.208,0,11.231,5.023,11.231,11.231
			C213.385,329.925,298.515,443.483,316.326,466.076z M116.289,466.076h171.719c-22.538-30.446-65.498-94.782-85.854-166.97
			C181.798,371.295,138.827,435.63,116.289,466.076z"/>
	</g>
</g>
<g>
</g>
<g>
</g>
<g>
</g>
<g>
</g>
<g>
</g>
<g>
</g>
<g>
</g>
<g>
</g>
<g>
</g>
<g>
</g>
<g>
</g>
<g>
</g>
<g>
</g>
<g>
</g>
<g>
</g>
</svg>
