<?xml version="1.0" encoding="iso-8859-1"?>
<!-- Generator: Adobe Illustrator 19.0.0, SVG Export Plug-In . SVG Version: 6.00 Build 0)  -->
<svg version="1.1" id="Capa_1" xmlns="http://www.w3.org/2000/svg" xmlns:xlink="http://www.w3.org/1999/xlink" x="0px" y="0px"
	 viewBox="0 0 539.077 539.077" style="enable-background:new 0 0 539.077 539.077;" xml:space="preserve">
<g>
	<g>
		<path d="M494.154,449.231h-67.385v-22.462h67.385c12.393,0,22.462-10.068,22.462-22.462v-73.965l-41.633-41.633
			c-2.106-2.106-3.29-4.957-3.29-7.941V78.615c0-30.961-25.182-56.154-56.154-56.154h-292c-30.961,0-56.154,25.192-56.154,56.154
			v202.154c0,2.983-1.184,5.835-3.29,7.941l-41.633,41.633v73.965c0,12.393,10.079,22.462,22.462,22.462h67.385v22.462H44.923
			C20.147,449.231,0,429.072,0,404.308v-78.615c0-2.983,1.184-5.835,3.29-7.941l41.633-41.633V78.615
			C44.923,35.272,80.195,0,123.538,0h292c43.344,0,78.615,35.272,78.615,78.615v197.504l41.633,41.633
			c2.106,2.106,3.29,4.957,3.29,7.941v78.615C539.077,429.072,518.919,449.231,494.154,449.231z"/>
		<path d="M482.923,539.077H56.154c-4.541,0-8.642-2.742-10.375-6.931c-1.744-4.19-0.779-9.037,2.435-12.24
			c63.36-63.37,64.094-148.435,64.094-149.29c0-6.208,5.023-11.231,11.231-11.231h292c6.186,0,11.209,5.023,11.231,11.209
			c0,0.965,0.921,96.602,63.349,148.632c3.619,3.027,4.979,8.006,3.356,12.437C491.873,536.116,487.661,539.077,482.923,539.077z
			 M81.226,516.615H455.68c-40.426-47.424-49.047-109.544-50.889-134.769H134.188C132.148,405.953,122.902,464.322,81.226,516.615z"
			/>
		<path d="M269.538,213.385c-43.344,0-78.615-35.272-78.615-78.615s35.272-78.615,78.615-78.615s78.615,35.272,78.615,78.615
			S312.882,213.385,269.538,213.385z M269.538,78.615c-30.961,0-56.154,25.192-56.154,56.154s25.192,56.154,56.154,56.154
			c30.972,0,56.154-25.192,56.154-56.154S300.511,78.615,269.538,78.615z"/>
		<path d="M129.154,225.306c-9.29,0-16.846-7.557-16.846-16.846c0-9.29,7.557-16.846,16.846-16.846
			c9.29,0,16.846,7.557,16.846,16.846C146,217.75,138.443,225.306,129.154,225.306z M129.154,202.845
			c-3.093,0-5.615,2.523-5.615,5.615c0,6.186,11.231,6.186,11.231,0C134.769,205.367,132.247,202.845,129.154,202.845z"/>
		<path d="M449.231,494.154H89.846v-22.462h359.385V494.154z M494.154,381.846H44.923v-22.462h449.231V381.846z M527.846,336.923
			H11.231v-22.462h516.615V336.923z M482.923,292H56.154v-22.462h168.462v-75.808h22.462v75.808H292v-73.921h22.462v73.921h168.462
			V292z M438,112.308h-67.385c-6.208,0-11.231-5.023-11.231-11.231V56.845c0-6.208,5.023-11.231,11.231-11.231H438
			c6.208,0,11.231,5.023,11.231,11.231v44.232C449.231,107.285,444.208,112.308,438,112.308z M381.846,89.846h44.923V68.076h-44.923
			V89.846z M314.462,76.257H292V11.231h22.462V76.257z M247.077,75.336h-22.462V11.231h22.462V75.336z"/>
	</g>
</g>
<g>
</g>
<g>
</g>
<g>
</g>
<g>
</g>
<g>
</g>
<g>
</g>
<g>
</g>
<g>
</g>
<g>
</g>
<g>
</g>
<g>
</g>
<g>
</g>
<g>
</g>
<g>
</g>
<g>
</g>
</svg>
